<?xml version="1.0" encoding="utf-8"?>
<!-- Generator: Adobe Illustrator 22.1.0, SVG Export Plug-In . SVG Version: 6.00 Build 0)  -->
<svg version="1.1" id="Layer_1" xmlns="http://www.w3.org/2000/svg" xmlns:xlink="http://www.w3.org/1999/xlink" x="0px" y="0px"
	 viewBox="0 0 256 256" style="enable-background:new 0 0 256 256;" xml:space="preserve">
<style type="text/css">
	.st0{fill:#231F20;}
	.st1{fill:#FFEFE4;}
	.st2{fill:#69EBFC;}
	.st3{fill:#5FD4E3;}
	.st4{fill:#A1F1FC;}
	.st5{fill:#D476E2;}
	.st6{fill:#B665C2;}
	.st7{fill:#EA82FA;}
	.st8{fill:#FFF7F2;}
	.st9{fill:#FF8354;}
	.st10{fill:#FFA172;}
	.st11{fill:#6770E6;}
	.st12{fill:#5861C7;}
	.st13{fill:#E0734A;}
	.st14{fill:#EDD4C2;}
	.st15{fill:#CC6944;}
	.st16{fill:#858EFF;}
	.st17{fill:#C76642;}
	.st18{fill:#FFFFFF;}
	.st19{fill:#FFDEC7;}
	.st20{fill:#4E56B0;}
	.st21{fill:#94529E;}
	.st22{fill:#41B6C5;}
	.st23{fill:#9847A4;}
	.st24{fill:#C2552C;}
	.st25{fill:#CFB6A4;}
</style>
<g>
	<circle class="st4" cx="127.996" cy="160" r="96"/>
	<path class="st3" d="M223.996,160c0-0.812-0.01-1.621-0.031-2.428c-1.268-51.091-42.451-92.273-93.541-93.542
		c-0.807-0.02-1.616-0.031-2.428-0.031s-1.621,0.01-2.428,0.031c-51.091,1.268-92.273,42.451-93.541,93.542
		c-0.02,0.807-0.031,1.616-0.031,2.428s0.01,1.621,0.031,2.428c0.61,24.583,10.464,46.869,26.213,63.521c0,0,0,0-0.001,0.001
		c0.006,0.006,0.012,0.012,0.018,0.019c2.196,2.321,4.506,4.534,6.922,6.626c0.018,0.015,0.035,0.032,0.052,0.048
		c0.001-0.001,0.001-0.001,0.002-0.002c16.26,14.061,37.288,22.757,60.334,23.329c0.807,0.02,1.616,0.031,2.428,0.031
		s1.621-0.01,2.428-0.031c23.046-0.572,44.074-9.268,60.334-23.329c0.001,0.001,0.001,0.001,0.002,0.002
		c0.018-0.015,0.035-0.032,0.052-0.048c2.416-2.092,4.725-4.305,6.921-6.625c0.006-0.007,0.013-0.013,0.019-0.02
		c0,0,0,0-0.001-0.001c15.749-16.653,25.603-38.939,26.213-63.521C223.986,161.621,223.996,160.812,223.996,160z M183.69,94.05
		c-5.476,4.64-11.442,8.536-17.775,11.638c-3.897-11.837-9.031-21.76-15.014-28.95C162.898,80.018,174.052,85.885,183.69,94.05z
		 M132.836,74.607c6.697,2.521,13.399,10.117,18.944,21.693c1.948,4.067,3.68,8.477,5.194,13.157
		c-7.696,2.735-15.806,4.368-24.138,4.826V74.607z M132.836,123.978c9.335-0.464,18.318-2.26,26.763-5.204
		c2.726,11.158,4.318,23.496,4.636,36.387h-31.399V123.978z M164.236,164.84c-0.318,12.89-1.909,25.23-4.633,36.388
		c-8.447-2.945-17.43-4.742-26.766-5.206V164.84H164.236z M91.756,164.84h31.399v31.182c-9.336,0.464-18.319,2.261-26.766,5.205
		C93.665,190.07,92.074,177.73,91.756,164.84z M91.756,155.16c0.318-12.89,1.91-25.229,4.636-36.387
		c8.446,2.944,17.429,4.741,26.763,5.204v31.182H91.756z M123.156,74.607v39.676c-8.331-0.458-16.442-2.091-24.138-4.826
		c1.514-4.68,3.246-9.09,5.194-13.157C109.756,84.723,116.458,77.127,123.156,74.607z M105.092,76.738
		c-5.984,7.19-11.117,17.114-15.014,28.95c-6.333-3.102-12.299-6.998-17.775-11.638C81.939,85.885,93.094,80.018,105.092,76.738z
		 M65.236,100.74c6.638,5.741,14.071,10.587,22.112,14.351c-3.063,12.06-4.934,25.644-5.277,40.068H41.814
		C42.935,134.742,51.135,115.652,65.236,100.74z M82.071,164.84c0.343,14.425,2.215,28.007,5.278,40.068
		c-8.036,3.762-15.465,8.604-22.1,14.34c-14.1-14.912-22.314-33.991-23.435-54.408H82.071z M72.319,225.957
		c5.474-4.638,11.436-8.533,17.766-11.633c3.896,11.83,9.026,21.751,15.007,28.938C93.1,239.983,81.953,234.116,72.319,225.957z
		 M104.212,223.7c-1.948-4.067-3.68-8.475-5.193-13.155c7.695-2.735,15.806-4.364,24.137-4.821v39.67
		C116.458,242.873,109.756,235.277,104.212,223.7z M132.836,245.393v-39.67c8.331,0.458,16.442,2.086,24.137,4.821
		c-1.514,4.68-3.246,9.089-5.193,13.155C146.235,235.277,139.534,242.873,132.836,245.393z M165.907,214.324
		c6.331,3.1,12.292,6.995,17.766,11.633c-9.634,8.159-20.781,14.027-32.773,17.305C156.881,236.075,162.01,226.153,165.907,214.324z
		 M190.742,219.248c-6.635-5.736-14.064-10.578-22.1-14.34c3.064-12.061,4.935-25.643,5.278-40.068h40.257
		C213.057,185.257,204.842,204.336,190.742,219.248z M173.921,155.16c-0.343-14.425-2.213-28.008-5.277-40.068
		c8.041-3.765,15.474-8.61,22.112-14.351c14.101,14.912,22.3,34.002,23.422,54.42H173.921z"/>
	<path class="st22" d="M223.92,156.358c-0.833,24.213-10.619,46.15-26.168,62.591c0,0,0,0,0.001,0.001
		c-0.006,0.007-0.013,0.013-0.019,0.02c-2.196,2.321-4.505,4.533-6.921,6.625c-0.018,0.015-0.035,0.032-0.052,0.048
		c-0.001-0.001-0.001-0.001-0.002-0.002c-16.26,14.061-37.288,22.757-60.334,23.329c-0.807,0.02-1.616,0.031-2.428,0.031
		s-1.621-0.01-2.428-0.031c-23.046-0.572-44.074-9.268-60.334-23.329c-0.001,0.001-0.001,0.001-0.002,0.002
		c-0.018-0.015-0.035-0.032-0.052-0.048c-2.416-2.093-4.726-4.305-6.922-6.626c-0.006-0.006-0.012-0.012-0.018-0.019
		c0,0,0,0,0.001-0.001c-15.549-16.441-25.335-38.378-26.168-62.591c-0.015,0.405-0.035,0.808-0.045,1.215
		c-0.02,0.807-0.031,1.616-0.031,2.428s0.01,1.621,0.031,2.428c0.61,24.583,10.464,46.869,26.213,63.521c0,0,0,0-0.001,0.001
		c0.006,0.006,0.012,0.012,0.018,0.019c2.196,2.321,4.506,4.534,6.922,6.626c0.018,0.015,0.035,0.032,0.052,0.048
		c0.001-0.001,0.001-0.001,0.002-0.002c16.26,14.061,37.288,22.757,60.334,23.329c0.807,0.02,1.616,0.031,2.428,0.031
		s1.621-0.01,2.428-0.031c23.046-0.572,44.074-9.268,60.334-23.329c0.001,0.001,0.001,0.001,0.002,0.002
		c0.018-0.015,0.035-0.032,0.052-0.048c2.416-2.092,4.725-4.305,6.921-6.625c0.006-0.007,0.013-0.013,0.019-0.02
		c0,0,0,0-0.001-0.001c15.749-16.653,25.603-38.939,26.213-63.521c0.02-0.807,0.031-1.616,0.031-2.428s-0.01-1.621-0.031-2.428
		C223.955,157.166,223.935,156.763,223.92,156.358z"/>
	<circle class="st3" cx="128" cy="159.519" r="23.01"/>
	<path id="XMLID_10_" class="st5" d="M190.895,59.492c2.444,48.394-46.86,91.681-59.815,102.189
		c-1.792,1.454-4.354,1.452-6.139-0.01c-12.615-10.33-59.922-52.173-59.922-98.688C65.018,28.202,93.21,0.006,127.989,0
		C161.583-0.005,189.201,25.941,190.895,59.492z"/>
	<path id="XMLID_5_" class="st7" d="M127.989,10.845c32.966-0.005,60.175,24.983,62.781,57.623c0.228-2.967,0.277-5.961,0.125-8.975
		C189.201,25.941,161.583-0.006,127.989,0C93.21,0.006,65.018,28.202,65.018,62.982c0,1.847,0.083,3.685,0.227,5.515
		C67.95,36.212,95.005,10.85,127.989,10.845z"/>
	<circle id="XMLID_4_" class="st6" cx="128" cy="63.037" r="38.693"/>
</g>
</svg>
